# xmcd
#
# Track frame offsets:
#	150
#	11648
#	24663
#	39361
#	52072
#	66011
#	77737
#	89849
#	100676
#	114567
#	126483
#	137664
#	150757
#	164682
#	178163
#
# Disc length: 2535 seconds
#
# Revision: 1
# Processed by: cddbd v1.5.1PL2 Copyright (c) Steve Scherf et al.
# Submitted via: audiograbber 1.82.02
#
DISCID=c809e50f
DTITLE=Various Artist - Fabulous 50's
DYEAR=2006
DGENRE=Oldies
TTITLE0=Frankie Laine - Mule Train
TTITLE1=Jo Stafford - Shrimp Boats
TTITLE2=Nat King Cole - Mona Lisa
TTITLE3=Rosemary Clooney - Half As Much
TTITLE4=Tony Bennett - Stranger In Paradise
TTITLE5=Teresa Brewer - A Tear Fell
TTITLE6=Johnnie Ray - Just Walking In The Rain
TTITLE7=Perry Como - Hot Diggity
TTITLE8=Harry Belafonte - Day O
TTITLE9=Browns - Scarlet Ribbons
TTITLE10=Four Preps - 26 Miles
TTITLE11=Art and Dotty Todd - Chanson D'Amour
TTITLE12=Johnny Mathis - It's Not For Me To Say
TTITLE13=Jane Morgan - The Day The Rains Came
TTITLE14=Guy Mitchell - Heartaches By The Number
EXTD=
EXTT0=
EXTT1=
EXTT2=
EXTT3=
EXTT4=
EXTT5=
EXTT6=
EXTT7=
EXTT8=
EXTT9=
EXTT10=
EXTT11=
EXTT12=
EXTT13=
EXTT14=
PLAYORDER=
